<svg id="Calque_1" data-name="Calque 1" xmlns="http://www.w3.org/2000/svg" viewBox="0 0 300 300"><defs><style>.cls-1{fill:#264ce2;}.cls-2{fill:#8298ef;}.cls-3{fill:#2965f0;}.cls-4{fill:#fefefe;}.cls-5{fill:#eaeaea;}</style></defs><title>Plan de travail 2</title><path class="cls-1" d="M150.68,274.18h-.59c-5.94-1.33-11.74-3.15-17.61-4.74-9.22-2.52-18.42-5.11-27.63-7.66l-22.6-6.29c-.92-.26-1.83-.55-2.76-.75a1.47,1.47,0,0,1-1.29-1.51c-.14-1.92-.32-3.85-.5-5.77-.28-3-.53-6.08-.82-9.12s-.52-5.93-.79-8.9-.56-6.08-.81-9.12c-.22-2.53-.46-5.06-.67-7.59-.19-2.36-.43-4.72-.63-7.08-.27-3.12-.57-6.23-.84-9.34-.25-2.95-.52-5.89-.78-8.83-.23-2.51-.45-5-.67-7.52-.28-3-.52-6-.81-9-.23-2.48-.43-5-.66-7.44-.28-3-.53-6.09-.82-9.12-.22-2.44-.42-4.87-.65-7.3q-.42-4.56-.81-9.12c-.26-3.07-.55-6.13-.81-9.2s-.52-5.88-.79-8.83c-.22-2.5-.44-5-.67-7.51-.28-3-.53-6.08-.82-9.12-.23-2.41-.41-4.82-.64-7.22-.29-3.07-.56-6.13-.82-9.2s-.64-6.16-.74-9.27a5.9,5.9,0,0,0-.13-1.51v-.3a1.12,1.12,0,0,0,0-.88v-.29a1.11,1.11,0,0,1,.75-.22H236.58c1.92,0,2,0,1.88,1.91s-.34,3.89-.49,5.84c-.25,3.09-.56,6.18-.82,9.27-.25,2.94-.52,5.89-.79,8.83s-.53,6-.81,9q-.5,5.4-1,10.81c-.32,3.6-.65,7.2-1,10.8s-.62,7-.94,10.44c-.27,3-.53,6-.81,9q-.49,5.4-1,10.8c-.27,3.07-.56,6.13-.82,9.2s-.54,6-.8,9-.53,5.93-.8,8.9-.53,6.08-.81,9.12-.52,5.94-.8,8.91-.54,6.08-.81,9.12-.54,5.94-.8,8.91-.55,6-.8,9.05-.57,6.18-.82,9.27c-.2,2.38-.43,4.77-.65,7.15-.12,1.22-.19,2.44-.33,3.65a1.23,1.23,0,0,1-1,1.15l-30,8.3L170,269c-5.86,1.64-11.73,3.24-17.59,4.89C151.83,274,151.24,274,150.68,274.18Z"/><path class="cls-2" d="M62.52,75c.18.3.27.59,0,.88Z"/><path class="cls-3" d="M150.53,111.33c0-7,0-14.08,0-21.12,0-.65.13-.88.84-.88q35.13,0,70.26,0c.64,0,.72.16.66.77-.28,3.07-.47,6.15-.77,9.22-.2,2.12-.41,4.25-.57,6.38-.22,2.76-.46,5.51-.74,8.27-.23,2.17-.39,4.35-.58,6.52-.26,3-.59,5.94-.86,8.91-.18,1.94-.29,3.88-.46,5.82-.22,2.44-.49,4.87-.71,7.31-.13,1.36-.19,2.72-.32,4.07-.17,1.91-.38,3.81-.56,5.72-.12,1.33-.2,2.67-.31,4-.18,2-.38,4-.56,5.94-.12,1.26-.21,2.52-.32,3.78l-.57,6.08c-.11,1.21-.2,2.42-.31,3.63-.19,2.08-.39,4.16-.57,6.24-.16,1.86-.3,3.73-.46,5.59s-.38,3.86-.56,5.79c-.12,1.24-.21,2.47-.32,3.71l-.57,6.3c-.11,1.31-.19,2.62-.31,3.93-.18,1.95-.41,3.91-.55,5.87-.08,1.23-.21,2.46-.33,3.7L210.4,223c-.11,1.3-.19,2.61-.31,3.92-.18,2-.38,3.91-.56,5.87-.12,1.26-.22,2.52-.32,3.77-.15,1.87-.3,3.73-.44,5.6,0,.51-.39.67-.82.79q-3.1.84-6.19,1.71L188,248.52l-13.22,3.66L161,256q-4.92,1.37-9.84,2.75c-.59.17-.61-.11-.61-.58q0-10.59,0-21.19c0-.34.08-.7-.29-.92a.47.47,0,0,1,.19-.18c2.11-.71,4.28-1.24,6.42-1.83l23.74-6.58c4.45-1.23,8.9-2.48,13.35-3.7,1.39-.37,1.41-.37,1.53-1.8.37-4.67.81-9.34,1.23-14,.36-4.08.74-8.17,1.1-12.25.47-5.21.92-10.41,1.39-15.62s.93-10.41,1.4-15.61q.67-7.37,1.33-14.74c.43-4.91.89-9.82,1.31-14.74.41-4.67.84-9.34,1.23-14,.25-2.87.52-5.74.78-8.61.06-.71,0-.78-.74-.81-.27,0-.54,0-.81,0H151.93C151.45,111.57,150.94,111.72,150.53,111.33Z"/><path class="cls-4" d="M150.53,111.33l.95,0h53.24c.88,0,.85,0,.77.89-.33,3.59-.65,7.2-1,10.8l-1.26,14.08-.93,10.44q-.63,7.08-1.28,14.15-.54,6-1.07,12-.63,7.14-1.28,14.3c-.36,4.09-.71,8.18-1.08,12.26-.41,4.67-.84,9.34-1.26,14-.26,2.87-.53,5.74-.76,8.62a.73.73,0,0,1-.63.79q-17,4.66-33.92,9.38L150.82,236c-.14,0-.29,0-.43.07a1.26,1.26,0,0,1-.24-1q0-10.45,0-20.92a1.26,1.26,0,0,1,.24-1v-.05a3.45,3.45,0,0,1,1.34-.56c7.08-1.89,14.15-3.83,21.23-5.72,1.72-.46,1.76-.44,1.94-2.2.25-2.41.44-4.81.65-7.22s.44-4.81.65-7.22c.26-3,.54-6.08.82-9.12.06-.75.14-1.5.19-2.26,0-.49-.15-.67-.61-.65H151.67a2.49,2.49,0,0,1-1.29-.19v0a1.22,1.22,0,0,1-.24-1q0-10,0-20.09a1.49,1.49,0,0,1,.18-.92,2.33,2.33,0,0,1,1.42-.24H177.7c1.54,0,1.52,0,1.64-1.51.26-3.12.56-6.23.83-9.34q.47-5.15.91-10.29c.08-.86-.05-1-1-1H151.7a2.51,2.51,0,0,1-1.35-.22,1.5,1.5,0,0,1-.2-1q0-10,0-20a1.34,1.34,0,0,1,.24-1Z"/><path class="cls-5" d="M150.39,213.18V236l-.15,0-13.67-3.82-30.66-8.51a.82.82,0,0,1-.73-.87c-.39-4.67-.83-9.34-1.24-14-.32-3.47-.62-7-.93-10.43-.26-3-.5-5.94-.79-8.9,0-.48.07-.57.52-.57h21c.44,0,.58.12.61.56.27,3.09.56,6.17.83,9.26.22,2.39.43,4.77.62,7.16,0,.52.3.66.75.78Z"/><path class="cls-5" d="M150.39,111.38v22c-.22.17-.47.09-.71.09H98a1.33,1.33,0,0,1-.71-.07c-.25-2.5-.5-5-.73-7.5-.43-4.65-.83-9.29-1.27-13.93-.05-.46,0-.58.51-.58h54.44Z"/><path class="cls-5" d="M150.39,156v22c-.26,0-.53,0-.8,0q-23.76,0-47.51,0c-.72,0-.94-.17-1-.91-.38-4.74-.83-9.48-1.26-14.23q-.3-3.42-.62-6.86c.21-.19.47-.1.7-.1h49.78C149.92,155.88,150.17,155.8,150.39,156Z"/><path class="cls-3" d="M150.38,178l11,0c5.13,0,10.27,0,15.4,0,.65,0,.73.16.67.78-.4,4.11-.74,8.22-1.11,12.34q-.61,7-1.27,13.93c-.15,1.58-.18,1.57-1.72,2l-22.68,6.11a1.45,1.45,0,0,1-.29,0,1.33,1.33,0,0,0,.15-.85V178.83A1.33,1.33,0,0,0,150.38,178Z"/><path class="cls-3" d="M150.39,156l-.81,0h-49.5l-.88,0c.24-.32.59-.17.88-.17h49.35c1.23,0,1.1.14,1.1-1.09V134.54c0-1,0-1-1-1H98.19c-.3,0-.64.12-.9-.14h52.59l.51,0,.88,0c9.78,0,19.55,0,29.33,0,.65,0,.82.15.76.81-.41,4.23-.77,8.47-1.15,12.7-.25,2.8-.52,5.6-.73,8.4,0,.59-.25.69-.78.69q-13.72,0-27.43,0Z"/><path d="M149.23,25.83c4.23,0,8.46,0,12.69,0,.54,0,.68.12.67.67,0,2.76,0,5.53,0,8.29,0,.59-.12.77-.75.76-4.69,0-9.38,0-14.07,0-.58,0-.75.14-.73.72,0,1.23,0,1.23,1.24,1.23,4.49,0,9,0,13.49,0,.6,0,.82.09.82.77q0,10.43,0,20.83c0,.62-.16.75-.76.75q-12.59,0-25.15,0c-.67,0-.8-.19-.8-.82,0-2.88,0-5.77,0-8.65,0-.63.18-.75.78-.75,4.66,0,9.33,0,14,0,.57,0,.81-.07.78-.73-.07-1.21,0-1.21-1.23-1.21-4.53,0-9.05,0-13.57,0-.61,0-.76-.17-.75-.77q0-10.2,0-20.39c0-.58.17-.71.73-.71C140.82,25.84,145,25.83,149.23,25.83Z"/><path d="M181.3,25.83c4.21,0,8.41,0,12.61,0,.53,0,.7.1.69.67,0,2.78,0,5.57,0,8.35,0,.62-.2.7-.73.7-4.7,0-9.39,0-14.08,0-.59,0-.73.17-.71.73,0,1.22,0,1.22,1.22,1.22,4.52,0,9,0,13.57,0,.56,0,.73.12.73.72q0,10.48,0,21c0,.49-.1.66-.64.65q-12.68,0-25.37,0c-.56,0-.67-.17-.67-.7q0-4.44,0-8.87c0-.52.13-.65.64-.64,4.69,0,9.39,0,14.08,0,.6,0,.85-.07.81-.77-.07-1.17,0-1.17-1.2-1.17-4.55,0-9.09,0-13.64,0-.54,0-.69-.12-.69-.68q0-10.26,0-20.53c0-.59.2-.65.7-.65C172.85,25.84,177.08,25.83,181.3,25.83Z"/><path d="M103.9,42.5c0-5.3,0-10.6,0-15.91,0-.57.08-.78.73-.77q12.64,0,25.3,0c.53,0,.68.1.68.67q0,4.88,0,9.75c0,.58-.1.77-.74.76-4.69,0-9.38,0-14.08,0-.62,0-.74.18-.74.77q0,4.8,0,9.6c0,.62.1.82.78.82,4.69,0,9.38,0,14.08,0,.5,0,.71,0,.7.65q0,4.95,0,9.9c0,.52-.15.62-.65.62q-12.69,0-25.37,0c-.63,0-.69-.23-.69-.75C103.91,53.21,103.9,47.86,103.9,42.5Z"/></svg>