<svg id="Calque_1" data-name="Calque 1" xmlns="http://www.w3.org/2000/svg" viewBox="0 0 300 300"><defs><style>.cls-1{fill:#e34d26;}.cls-2{fill:#f3b5a5;}.cls-3{fill:#f06529;}.cls-4{fill:#eaeaea;}.cls-5{fill:#fefefe;}</style></defs><title>Plan de travail 3</title><path class="cls-1" d="M150.3,274.19h-.73c-6.72-1.24-13.2-3.42-19.78-5.21-16.34-4.45-32.64-9-49-13.54-3.37-.93-3-.42-3.4-4.23-.49-5.07-.92-10.14-1.36-15.2s-.92-10.14-1.35-15.21c-.32-3.86-.7-7.72-1-11.58-.44-5.11-.91-10.22-1.36-15.33s-.9-10-1.36-15.08-.85-9.82-1.31-14.72S68.74,154,68.31,149s-.92-10.13-1.34-15.2q-.61-7.31-1.3-14.6c-.46-5-.88-10.06-1.35-15.09s-.9-10-1.34-15c-.41-4.62-.87-9.24-1.07-13.88a.82.82,0,0,1,.78-1A9.87,9.87,0,0,1,64,74.21H236a3.73,3.73,0,0,1,1.78.21c.52.54,0,1.28.36,1.85v.25a42.33,42.33,0,0,0-.36,5.16c-.32,4.27-.71,8.53-1.1,12.79-.37,4.1-.71,8.2-1.1,12.3-.47,5-.88,10-1.35,15.08-.37,4-.71,8-1.06,11.94-.45,5.1-.94,10.21-1.37,15.32-.35,4.14-.75,8.28-1.09,12.42-.31,3.91-.71,7.8-1,11.7-.36,4.1-.74,8.2-1.1,12.31s-.78,8.36-1.12,12.54c-.42,5-.91,10-1.33,15.08q-.62,7.31-1.3,14.6c-.46,5-.88,10-1.36,15.07-.32,3.42-.59,6.84-.92,10.26a1.89,1.89,0,0,1-1.59,1.82Q203,259.85,185,264.84q-15.24,4.21-30.49,8.46C153.14,273.69,151.72,273.92,150.3,274.19Z"/><path class="cls-2" d="M237.82,74.62l.28,0v1.69C237.53,75.81,238.09,75.15,237.82,74.62Z"/><path class="cls-3" d="M94.77,111.46c.43-.47,1-.25,1.49-.25h52.13c1.67,0,1.67,0,1.67-1.72,0-6.26,0-12.52,0-18.79,0-1.1.34-1.33,1.38-1.33q34.67,0,69.35,0c.93,0,1.21.19,1.11,1.17-.37,3.43-.65,6.87-1,10.3-.18,2-.34,4-.52,6-.31,3.44-.64,6.87-.94,10.31-.19,2.2-.32,4.4-.52,6.6-.29,3.2-.62,6.39-.93,9.58-.18,2-.34,4-.52,6-.31,3.44-.64,6.87-.94,10.31-.19,2.16-.32,4.32-.52,6.48-.29,3.24-.62,6.47-.92,9.7-.19,2-.35,4.08-.53,6.12-.31,3.4-.64,6.79-.94,10.19-.19,2.16-.32,4.32-.52,6.48-.29,3.24-.62,6.47-.92,9.7-.19,2-.35,4.08-.53,6.12-.31,3.4-.64,6.79-.94,10.19-.19,2.16-.32,4.32-.52,6.48-.29,3.24-.62,6.47-.92,9.7-.19,2.08-.35,4.17-.53,6.25-.15,1.67-.34,3.35-.48,5-.06.72-.63.76-1.11.9L198,245.55l-23.47,6.55c-7.24,2-14.48,4.06-21.73,6.06-.84.23-1.91,1-2.49.51s-.22-1.73-.22-2.65c0-6.62,0-13.25,0-19.88a.71.71,0,0,1,.37-.5c3.23-1,6.52-1.88,9.79-2.78l33.3-9.24a1.54,1.54,0,0,0,1.33-1.56c.84-9.09,1.6-18.18,2.44-27.27q.93-10.06,1.83-20.14c.51-5.51,1-11,1.49-16.53.05-.6.32-1.27-.17-1.85a5.35,5.35,0,0,0-1.69-.09H152a3.48,3.48,0,0,1-2-.26,3,3,0,0,1-.35-2c0-6.05,0-12.1,0-18.15,0-1.85,0-1.86-1.9-1.86H121.13a3.09,3.09,0,0,1-2.1-.35c-.08-.4.23-.47.49-.56a4.51,4.51,0,0,1,1.32-.11h28.45c.24,0,.48,0,.72,0,2.87-.07,5.74,0,8.61,0h42.07c2.07,0,2.14-.07,2.3-2.16.46-5.76,1.1-11.5,1.56-17.26.12-1.53.08-1.62-1.54-1.62H151.37c-.45,0-.89,0-1.34,0-.72.07-1.45,0-2.18,0H97A3.16,3.16,0,0,1,94.77,111.46Z"/><path class="cls-4" d="M150.06,155.83c.48,0,1,0,1.44,0q24,0,48.09,0c.46,0,1-.2,1.39.18-.66.56-1.46.38-2.21.38H152.94c-2.67,0-2.48-.12-2.49,2.53v16.85a4.28,4.28,0,0,1-.22,1.91.4.4,0,0,1-.41.19c-.48,0-1,0-1.45,0q-23.16,0-46.32,0c-1.09,0-1.34-.37-1.43-1.33q-1.22-14.12-2.5-28.24c-.92-10.25-1.88-20.5-2.81-30.76-.19-2-.36-4.1-.54-6.15.36,0,.72-.06,1.09-.06h53.71a3.88,3.88,0,0,1,.48,0,2.23,2.23,0,0,1,.4,1.6q0,9.33,0,18.67a2.23,2.23,0,0,1-.4,1.6c-9.91,0-19.81,0-29.72,0-.42,0-.89-.19-1.26.17a6.42,6.42,0,0,1,.52,2.83c.49,5.79,1,11.58,1.53,17.38.12,1.51.33,1.72,1.86,1.72h25.1A2.82,2.82,0,0,1,150.06,155.83Z"/><path class="cls-4" d="M150.33,235.89l-.28.25Q128,230,106,223.9a1.55,1.55,0,0,1-1.32-1.65c-.67-7.88-1.4-15.76-2.11-23.64-.26-2.85-.48-5.71-.78-8.56-.09-.87.17-1.08,1-1.08q10,0,20,0c.72,0,1,.12,1.12,1,.42,5.15.92,10.29,1.35,15.44.06.82.23,1.25,1.14,1.49,7.65,2,15.27,4.06,22.9,6.1a5.71,5.71,0,0,0,.71.08.25.25,0,0,1,.35.2c.1,3.23,0,6.46,0,9.69,0,3.88,0,7.76,0,11.64A4.49,4.49,0,0,1,150.33,235.89Z"/><path class="cls-3" d="M150.29,213.11l-.24-.07q0-16.9,0-33.8a2.13,2.13,0,0,0-.24-1.29l.24-.07a2.54,2.54,0,0,1,1.74-.34h23.39c2,0,2.29.28,2.13,2.26-.31,4-.7,8-1.06,11.94-.37,4.14-.79,8.27-1.1,12.42,0,.36-.07.72-.1,1.08a2.17,2.17,0,0,1-1.83,2.09c-2.73.71-5.46,1.43-8.19,2.18-4.17,1.15-8.35,2.23-12.52,3.36C151.8,213.07,151.08,213.47,150.29,213.11Z"/><path d="M178.13,43.05l-7.6,11.69L162.92,43l-.22,0v1.14c0,4.73,0,9.46,0,14.19,0,.74-.18.94-.93.93-3,0-6.06-.06-9.09,0-.86,0-1-.29-1-1q0-15.69,0-31.39c0-1,.29-1.1,1.15-1.09,3.19.05,6.38,0,9.57,0a1.53,1.53,0,0,1,1.53.86c2.14,3.6,4.34,7.17,6.53,10.76.44-.08.51-.48.68-.76,2-3.34,4.08-6.67,6.1-10a1.42,1.42,0,0,1,1.4-.83c3.28.05,6.55,0,9.82,0,.79,0,1,.18,1,1q0,15.77,0,31.52c0,.82-.24,1-1,1-3.07,0-6.14-.06-9.21,0-.85,0-1-.29-1-1,0-5,0-10.1,0-15.15Z"/><path d="M78.48,42.57c0-5.25,0-10.51,0-15.76,0-.8.21-1,1-1q4.61.08,9.21,0c.83,0,1,.25,1,1,0,3,0,6.06,0,9.09,0,.82.23,1,1,1q4.11-.06,8.24,0c.77,0,1-.16,1-1-.06-3,0-6.07,0-9.1,0-.75.14-1,1-1,3.11.05,6.23,0,9.34,0,.67,0,.88.16.88.86q0,15.89,0,31.77c0,.68-.18.88-.87.87q-4.72,0-9.46,0c-.7,0-.87-.2-.86-.88,0-3.07,0-6.15,0-9.22,0-.95-.28-1.11-1.14-1.09q-3.94.09-7.88,0c-.91,0-1.24.16-1.22,1.16.08,3,0,6.06,0,9.1,0,.73-.16,1-.92.94q-4.68-.07-9.34,0c-.79,0-1-.19-1-1C78.5,53.08,78.48,47.83,78.48,42.57Z"/><path d="M131.45,25.84c4.81,0,9.61,0,14.42,0,.75,0,1,.13,1,1-.06,3.07-.05,6.14,0,9.21,0,.77-.17,1-1,1-2.63-.06-5.25,0-7.88-.05-.95,0-1.09.28-1.09,1.14,0,6.7,0,13.41.05,20.11,0,.93-.24,1.13-1.13,1.11-3-.06-6.06,0-9.09,0-.79,0-1-.21-1-1,0-6.74,0-13.49,0-20.23,0-.89-.18-1.16-1.11-1.13-2.58.07-5.17,0-7.75.05-.88,0-1.06-.27-1-1.09,0-3,.06-6,0-9,0-.87.17-1.16,1.11-1.15C121.84,25.87,126.64,25.84,131.45,25.84Z"/><path d="M195,42.6c0-5.22,0-10.43,0-15.64,0-.88.17-1.17,1.11-1.15,3,.07,6.06.06,9.09,0,.79,0,1,.2,1,1,0,6.71,0,13.42,0,20.12,0,1.08.26,1.35,1.33,1.33,4.44-.07,8.88,0,13.33,0,.9,0,1.26.16,1.23,1.18-.07,3,0,6,0,9,0,.71-.12,1-.91,1q-12.6,0-25.21,0c-.8,0-.91-.28-.91-1C195,53.1,195,47.85,195,42.6Z"/><path class="cls-5" d="M150.29,213.11c7.55-2,15.09-4.09,22.65-6.07,1.19-.31,1.7-.75,1.8-2,.44-5.75,1-11.49,1.51-17.24.25-2.85.44-5.71.78-8.55.13-1.17-.28-1.31-1.3-1.31-8.11,0-16.23,0-24.34,0-.44,0-.89,0-1.33-.05,0-6.83,0-13.66,0-20.49,0-1.1.33-1.33,1.37-1.32q24.79,0,49.58,0a67.62,67.62,0,0,1-.58,8c-.48,5.88-1.05,11.74-1.59,17.61q-1,11.7-2.1,23.39-.78,8.69-1.53,17.37c-.06.65-.12,1.08-.91,1.3q-21.79,6-43.58,12.07a2.1,2.1,0,0,1-.36,0c-.39-.3-.27-.73-.27-1.12,0-6.79,0-13.58,0-20.37A2.14,2.14,0,0,1,150.29,213.11Z"/><path class="cls-5" d="M150.05,133.3V111.43c.37,0,.73-.05,1.09-.05q26.36,0,52.71,0c1,0,1.35.12,1.24,1.23-.67,6.58-1.28,13.17-1.88,19.76-.06.65-.12,1-.93,1q-26.06,0-52.11-.05Z"/><path class="cls-1" d="M150.06,155.83c-.37,0-.73.07-1.09.07-9,0-17.91,0-26.87,0-.85,0-1.17-.17-1.25-1.09-.49-5.9-1.07-11.8-1.58-17.7a13.65,13.65,0,0,1-.2-3.61c9.85,0,19.7,0,29.55,0,1.19,0,1.47.34,1.46,1.49C150,141.94,150.06,148.88,150.06,155.83Z"/></svg>