<svg id="Calque_1" data-name="Calque 1" xmlns="http://www.w3.org/2000/svg" viewBox="0 0 300 300"><defs><style>.cls-1{fill:#e9ca32;}.cls-2{fill:#eec92f;}.cls-3{fill:#ffde24;}.cls-4{fill:#eaeaea;}.cls-5{fill:#e8c829;}.cls-6{fill:#e8c51f;}.cls-7{fill:#fefefe;}.cls-8{fill:#ffdb12;}</style></defs><title>Plan de travail 6</title><path class="cls-1" d="M237.72,74.83a64.57,64.57,0,0,1-.53,7.61c-.24,3.74-.64,7.47-1,11.21q-.72,8-1.42,16c-.29,3.36-.57,6.71-.86,10.07q-.74,8.46-1.48,16.91c-.43,5-.82,10-1.25,15-.45,5.26-.94,10.51-1.41,15.77-.41,4.75-.8,9.5-1.22,14.25-.48,5.58-1,11.15-1.46,16.72-.42,4.82-.81,9.64-1.22,14.45-.48,5.51-1,11-1.46,16.53-.43,5-.82,10-1.24,15-.2,2.34-.54,4.68-.64,7,0,1.14-.55,1.52-1.51,1.78q-7.81,2.13-15.61,4.31c-17.37,4.87-34.74,9.7-52.09,14.64a12.09,12.09,0,0,1-7,0q-33.09-9.39-66.23-18.56c-3-.83-2.94-.82-3.19-3.89-.59-7.1-1.24-14.19-1.84-21.29-.45-5.32-.85-10.65-1.31-16C73.22,206,72.59,199.51,72,193c-.58-6.71-1.09-13.43-1.67-20.15-.7-8-1.45-16.08-2.16-24.12-.44-5.07-.83-10.15-1.27-15.21S66,123.3,65.55,118.17s-.83-10-1.26-15c-.46-5.25-1-10.5-1.38-15.77-.29-4-.87-8.09-.92-12.17.15-1,.68-1.38,1.78-1.36,5.09.07,10.18,0,15.27,0H235.37C236.25,73.89,237.35,73.48,237.72,74.83Z"/><path d="M164.32,25.27h14.12c1.36,0,1.38,0,1.4,1.36,0,2-.05,4.08,0,6.11,0,1-.32,1.26-1.3,1.26-6.29,0-12.59,0-18.89,0-2.42,0-2.08-.29-2.11,2.14,0,.31,0,.63,0,1,0,.6.3.77.82.76h20c1.38,0,1.42,0,1.42,1.33,0,5.91,0,11.83,0,17.75,0,1-.32,1.29-1.3,1.29q-14.22,0-28.43,0c-1,0-1.37-.24-1.33-1.29.08-2,0-3.94,0-5.92,0-1.44,0-1.47,1.46-1.47,5.34,0,10.68,0,16,0,1,0,2,0,3,0,2.09,0,1.79,0,1.81-1.9v-.39c0-1.63,0-1.65-1.67-1.65H151.2c-.45,0-.89,0-1.34,0-.69,0-1.1-.2-1-1a5.61,5.61,0,0,0,0-.58q0-8.58,0-17.17c0-1.57,0-1.59,1.54-1.59Z"/><path d="M144.06,41.84c0,4.91,0,9.81,0,14.71,0,1.6,0,1.62-1.5,1.62H122.31c-1.47,0-1.48,0-1.49-1.41,0-2,0-3.95,0-5.92,0-1.29,0-1.32,1.39-1.32h11.46c1.64,0,1.66,0,1.66-1.66v-21c0-1.55,0-1.56,1.55-1.57,2,0,4,.05,5.92,0,1,0,1.29.34,1.28,1.32C144,31.66,144.06,36.75,144.06,41.84Z"/><path class="cls-2" d="M237.72,74.83a1.87,1.87,0,0,0-1.63-.77,8.81,8.81,0,0,1-1.15,0H64.85a3.85,3.85,0,0,1-.76,0A1.8,1.8,0,0,0,62,75.21c-.21-1.5-.21-1.5,1.13-1.53.32,0,.64,0,.95,0h173C238.1,73.65,237.87,74.26,237.72,74.83Z"/><path class="cls-3" d="M149.86,173.19V91.84c0-2.7-.2-2.5,2.45-2.5h66.45c1.82,0,1.8,0,1.49,1.81a44.12,44.12,0,0,0-.37,4.72c-.15,2.28-.42,4.55-.57,6.82a42.26,42.26,0,0,1-.61,6.22,27.46,27.46,0,0,0-.36,4.15c-.12,2.15-.36,4.3-.57,6.43a61.21,61.21,0,0,1-.58,6.61,32.2,32.2,0,0,0-.39,4.72c-.12,2.08-.32,4.19-.57,6.23s-.17,4.29-.56,6.43c-.33,1.77-.23,3.65-.47,5.48-.31,2.31-.33,4.66-.71,7-.26,1.56-.2,3.15-.34,4.73-.17,2.07-.47,4.15-.53,6.24s-.4,4-.65,6c-.21,1.7-.21,3.42-.35,5.11-.18,2.08-.39,4.17-.57,6.24a49.22,49.22,0,0,1-.6,6,36.93,36.93,0,0,0-.35,4.72c-.18,2.07-.42,4.16-.55,6.24a53.06,53.06,0,0,1-.61,6.41,41.5,41.5,0,0,0-.38,4.73c-.16,2.07-.33,4.18-.58,6.23a60,60,0,0,1-.58,6.42A33.4,33.4,0,0,0,208,230c-.16,2.08-.48,4.15-.55,6.25,0,1.63-.4,3.26-.33,4.92a1,1,0,0,1-.84,1.08c-.73.2-1.44.48-2.17.68l-23.3,6.29-16.32,4.4c-4.35,1.16-8.68,2.34-13,3.48-1.58.42-1.61.37-1.62-1.2,0-2.48,0-5,0-7.45Z"/><path class="cls-4" d="M123.5,208.45c.52-.68.26-1.47.26-2.21q0-46.68,0-93.38c0-.82.07-1.65.11-2.47.58-.41,1.23-.21,1.85-.21q7.7,0,15.4,0c.61,0,1.28-.22,1.83.24,0,.83.06,1.65.06,2.48q0,59.35,0,118.71a5.8,5.8,0,0,1-.2,2.47,16.94,16.94,0,0,1-3.89-.9q-23.7-6.42-47.39-12.91c-1.72-.47-1.67,0-1.67-2.13q0-8.4,0-16.8a3,3,0,0,1,.19-1.54,6,6,0,0,1,2.73.52l29.76,8.12a3.43,3.43,0,0,0,.56.06A.23.23,0,0,1,123.5,208.45Z"/><path class="cls-5" d="M123.5,208.45l-.38.05V110.77h.38Z"/><path class="cls-6" d="M143,110.42l-19.08,0c.41-.58,1-.41,1.57-.41q8,0,16,0C142,110,142.59,109.81,143,110.42Z"/><path class="cls-7" d="M211.73,110.44c0,3.89-.65,7.73-.91,11.59-.14,2.1-.4,4.18-.6,6.27-.14,1.49-.12,1.51-1.68,1.51H177.41c-1.45,0-1.49,0-1.49,1.48q0,15.36,0,30.74c0,1.56.1,1.64,1.86,1.38q6.6-1,13.19-2,7.91-1.2,15.81-2.45c.86-.13,1.16.11,1.07,1-.42,4.24-.8,8.48-1.2,12.72q-.53,5.51-1,11c-.45,4.81-.91,9.62-1.35,14.43s-.87,9.5-1.31,14.25c-.25,2.78-.56,5.56-.73,8.35-.07,1-.58,1.12-1.3,1.32-4.16,1.14-8.32,2.31-12.48,3.46l-30.11,8.3c-.48.14-.94.42-1.48.19a3.18,3.18,0,0,1-.18-1.67q0-8.31,0-16.62c0-2-.15-1.65,1.65-2.15,8.37-2.35,16.75-4.68,25.16-6.91a2.46,2.46,0,0,0,2.19-2.51c.48-5.19,1.08-10.37,1.63-15.56.22-2,.46-4,.68-6.06.15-1.48.08-1.53-1.36-1.3l-29.36,4.61a1.77,1.77,0,0,1-.37-.06,3.1,3.1,0,0,1-.21-1.85q0-35.8,0-71.6c0-.64.05-1.28.08-1.91.5-.42,1.1-.23,1.65-.23q25.85,0,51.7,0C210.64,110.18,211.25,110,211.73,110.44Z"/><path class="cls-8" d="M211.73,110.44l-19.66,0H156.75c.39-.6,1-.43,1.56-.43q25.94,0,51.88,0C210.74,110,211.36,109.8,211.73,110.44Z"/></svg>