<svg id="Calque_1" data-name="Calque 1" xmlns="http://www.w3.org/2000/svg" viewBox="0 0 300 300"><defs><style>.cls-1{fill:#333;}</style></defs><title>Plan de travail 9</title><path class="cls-1" d="M149.27,4a146.8,146.8,0,1,0,146.8,146.8A146.79,146.79,0,0,0,149.27,4ZM66.79,87.46h165a14.54,14.54,0,0,1,7.74,2.2l-83.24,72.62c-4.4,3.83-9.71,3.83-14.1,0L59.06,89.73A14.47,14.47,0,0,1,66.79,87.46ZM246.3,199a14.53,14.53,0,0,1-14.56,14.56H66.79A14.53,14.53,0,0,1,52.24,199V102a14.64,14.64,0,0,1,.83-4.7h0l82.7,72.24a20.34,20.34,0,0,0,26.84.08l82.85-72.32a14.38,14.38,0,0,1,.84,4.7Z"/></svg>