<svg id="Calque_1" data-name="Calque 1" xmlns="http://www.w3.org/2000/svg" viewBox="0 0 300 300"><defs><style>.cls-1{fill:#006189;}.cls-2{fill:#e38d00;}.cls-3{fill:#01618a;}.cls-4{fill:#e38e00;}.cls-5{fill:#e38e02;}</style></defs><title>Plan de travail 4</title><path class="cls-1" d="M19.44,170.16c.06,0,.16,0,.16-.09.52-2.72,2.47-3.83,4.91-4.42a15.37,15.37,0,0,1,4.86-.56,8.08,8.08,0,0,1,7.26,5.28q4.08,9.54,8.21,19,2.1,4.88,4.22,9.77c.39-.13.4-.48.51-.72,4-9,8.17-17.91,12-27,2.47-5.9,6.71-7.21,12.19-5.95.29.07.59.16.88.25,3.41,1,4.59,2.52,4.59,6.06,0,11,0,22,0,33,0,.76-.21,1-1,1q-3.33-.09-6.66,0c-.81,0-1-.22-1-1q0-15.93,0-31.85V172c-.42.2-.45.6-.59.91-4.15,9.25-8.35,18.49-12.44,27.78-1.88,4.29-3.87,6-10,5.43-3-.25-4.9-1.93-6.09-4.62q-6.39-14.32-12.84-28.61c-.13-.29-.15-.67-.57-.87v32.36c0,.41,0,.82-.06,1.23-2.65.17-5.31,0-8,.08-.39,0-.56-.16-.54-.55s0-.54,0-.81q0-16.23,0-32.46a2.06,2.06,0,0,0-.1-1.1Z"/><path class="cls-1" d="M223,157.48c-1.87-1.89-4.09-3.39-6-5.26a25.71,25.71,0,0,1-5.85-8.05c-.39-.92-.88-1.8-1.45-2.94a57.24,57.24,0,0,0-1,5.66,10.81,10.81,0,0,1-.47,2.19,3.75,3.75,0,0,1-5.35,2.11,7.83,7.83,0,0,1-2.77-2.53,22,22,0,0,1-3.9-10.73,31,31,0,0,1,1.18-13c.46-1.49.52-3.09,1.29-4.5.25-.45,0-.89-.35-1.2-2.9-2.92-4.31-6.66-5.69-10.4a62.69,62.69,0,0,1-2.07-6.3,11.13,11.13,0,0,0-2.1-3.83c-1.27-1.73-2.6-3.42-3.88-5.15a11,11,0,0,1-2.21-4.67,5.38,5.38,0,0,1,4.79-6.37c.47-.2,1,.09,1.46-.17h.2c.57.41,1.28.31,1.92.49a25.94,25.94,0,0,1,9.65,5,4.36,4.36,0,0,0,2.93,1.17,27.37,27.37,0,0,1,13.59,3.85,66.79,66.79,0,0,1,23.67,23.3,26,26,0,0,1,2.08,4.2c2.42,6.42,5.61,12.48,8.54,18.67a5.43,5.43,0,0,0,3.31,2.92c6.11,2.19,11.31,5.92,16.29,10a30.71,30.71,0,0,1,4.82,5.12c.5.65.44,1-.38,1.21a26.75,26.75,0,0,1-5.59,1.18c-2.68.16-5.18,1.16-7.85,1.63a4.22,4.22,0,0,0,1.38,2,25.74,25.74,0,0,0,4.32,2.91,30.74,30.74,0,0,1,7.9,6.74,20.62,20.62,0,0,0,2.14,2.34,6.66,6.66,0,0,1,1.61,2.77,1.09,1.09,0,0,1-.84-.44,40,40,0,0,0-10.71-6.87,25.14,25.14,0,0,1-9.29-6.86,15.29,15.29,0,0,1-2-3.53c-.35-.77.22-1.12.75-1.3a35.57,35.57,0,0,1,7.45-2.1,52.72,52.72,0,0,1,7.05-.33,3.38,3.38,0,0,0-1.62-1.9c-2.13-1.48-4.34-2.84-6.4-4.41A31.25,31.25,0,0,0,253,145.23a7.88,7.88,0,0,1-5.35-4.31c-2.86-5.92-5.79-11.81-8.24-17.9a51.06,51.06,0,0,0-8.64-13.92,54.07,54.07,0,0,0-19.31-14.82,17.25,17.25,0,0,0-6.7-1.68c-1.36,0-2.72-.2-4.07-.28a3.07,3.07,0,0,1-1.88-.95,28.75,28.75,0,0,0-9.17-5,7.2,7.2,0,0,0-1.89-.43,2,2,0,0,0-2.26,2.73,8.92,8.92,0,0,0,1.4,2.83,25.69,25.69,0,0,0,1.75,2.26c3.63,4.13,5.46,9.12,7,14.29a20.28,20.28,0,0,0,5.22,9.35,3.42,3.42,0,0,1,.86,3.59c-.38,1.46-1,2.84-1.43,4.26a27.06,27.06,0,0,0,1.27,20.3,4.59,4.59,0,0,0,2,2.25c.71.35,1,.23,1.1-.64.23-2.3.5-4.6.95-6.88.51-2.6,2.08-4.55,3.67-6.52.41-.51.59-.07.7.22.27.69.44,1.43.72,2.12a78.5,78.5,0,0,0,12.6,21.16C223.31,157.45,223.22,157.54,223,157.48Z"/><path class="cls-1" d="M19.44,170.78c.39.28.2.69.2,1q0,16.32,0,32.63c0,.92.22,1.22,1.17,1.19,2.42-.07,4.84,0,7.26,0-.22.32-.56.18-.84.18H19.44Z"/><path class="cls-1" d="M127.34,193.75c0,4.64-.08,9.28,0,13.92.09,4.07-1.81,6.73-5.39,8.33a18.56,18.56,0,0,1-7.63,1.68c-8.91,0-17.81,0-26.72,0-.94,0-1.15-.27-1.09-1.13a23.77,23.77,0,0,0,0-3.48c-.08-1,.34-1.14,1.21-1.14,8.47,0,16.93,0,25.39,0a8.24,8.24,0,0,0,3.85-.85,2.77,2.77,0,0,0,1.67-2.7c0-1,.29-2.19-.18-2.78s-1.79-.2-2.73-.2c-5.43,0-10.86,0-16.28-.06a17.68,17.68,0,0,1-9.71-2.72,6.93,6.93,0,0,1-3.4-6.33c.13-5.83.07-11.67,0-17.5,0-.75.21-.9.9-.89,2.25.05,4.51.06,6.76,0,.82,0,.94.27.93,1,0,5.8,0,11.61,0,17.41,0,2.17.87,3.26,3,3.68a10.94,10.94,0,0,0,2.14.22c5.83,0,11.67,0,17.5,0,.88,0,1.14-.19,1.14-1.12,0-6.75,0-13.51,0-20.26,0-.79.18-1.05,1-1,2.25.06,4.5,0,6.75,0,.74,0,.9.23.9.92,0,5,0,10,0,14.95Z"/><path class="cls-2" d="M158.79,165.86c4.24,0,8.47,0,12.7,0,.76,0,1.09.15,1,1a32,32,0,0,0,0,3.79c0,.82-.22,1-1,1-7.64,0-15.29,0-22.93,0a15.48,15.48,0,0,0-3.65.41,2.58,2.58,0,0,0-2.23,2.67c-.06,1.5-.07,3,0,4.51a3.66,3.66,0,0,0,3.48,3.64,17.94,17.94,0,0,0,2.64.19c3.59,0,7.17,0,10.75,0a18.07,18.07,0,0,1,9,2.42c2.46,1.44,3.9,3.43,3.68,6.44a42.21,42.21,0,0,0,0,4.5,7.08,7.08,0,0,1-3.36,6.39,17.42,17.42,0,0,1-9.86,2.9c-8.09.06-16.18,0-24.26,0-.65,0-.81-.22-.79-.82,0-1.3.06-2.6,0-3.89-.05-.85.2-1.09,1.06-1.08,7.27,0,14.54,0,21.81,0a14.12,14.12,0,0,0,3.55-.34,3.71,3.71,0,0,0,3.13-4v-3.27a3.29,3.29,0,0,0-2.59-3.54,15.18,15.18,0,0,0-4.35-.54c-3.44,0-6.9.06-10.33-.11a16.64,16.64,0,0,1-9.55-3.2,6.12,6.12,0,0,1-2.61-5.28c.06-1.8,0-3.61.06-5.42a7.07,7.07,0,0,1,3.53-6,16.51,16.51,0,0,1,8.87-2.38c4.09,0,8.19,0,12.28,0Z"/><path class="cls-2" d="M225.88,181.48c0-4.88,0-9.76,0-14.64,0-.82.23-1,1-1,2.18.06,4.37.06,6.55,0,.84,0,1.08.17,1.08,1,0,9.31,0,18.63,0,28,0,3.13,1,4.6,4.68,5a60.79,60.79,0,0,0,6.75.14c5.7,0,11.4,0,17.1,0,.77,0,1.08.15,1,1-.08,1.36,0,2.73,0,4.09,0,.54-.17.71-.71.7-8.19-.1-16.38.23-24.56-.2A18,18,0,0,1,229.7,203a7.93,7.93,0,0,1-3.8-6.95c0-4.85,0-9.69,0-14.54Z"/><path class="cls-3" d="M201.64,99.19c2.82-1,4.25.3,5.17,2.38a3.49,3.49,0,0,1-1.05,3.25c-.24.17-.41.25-.54-.08A17.82,17.82,0,0,0,201.64,99.19Z"/><path class="cls-1" d="M223,157.48l.26-.26,2.41,2.13A5,5,0,0,1,223,157.48Z"/><path class="cls-2" d="M215.39,204l.56-.29a7.12,7.12,0,0,0,4.46-6.76c.14-7.27.1-14.54,0-21.8,0-3.61-2-6-5.12-7.48a19.82,19.82,0,0,0-8.34-1.75q-7.93,0-15.87,0a20.1,20.1,0,0,0-7.87,1.57c-3.43,1.48-5.51,3.95-5.52,7.84q0,10.54,0,21.09a7.88,7.88,0,0,0,4.53,7.34,16.3,16.3,0,0,0,7.13,2,136,136,0,0,0,16.77-.3,1.64,1.64,0,0,1,1.37.45c1.88,1.74,3.8,3.43,5.68,5.17a2.07,2.07,0,0,0,1.55.59c2.69,0,5.39,0,8.09,0,.23,0,.54.16.74-.23Zm-3-8.21a3.88,3.88,0,0,1-1.59,3.07c-.45.38-.76.35-1.2-.06-1.66-1.57-3.37-3.09-5.06-4.62-.3-.27-.56-.6-1-.6h-9.28l-.08.23,6.94,6.31c-3.61-.17-6.95.31-10.24-.31a4.52,4.52,0,0,1-3.88-4.88q0-8.91,0-17.81c0-3.42,1.56-5.15,5-5.32,2.82-.14,5.66-.08,8.49-.09,2.32,0,4.64,0,7,.07a6,6,0,0,1,3.26,1.06,3.61,3.61,0,0,1,1.68,3.1Q212.42,185.88,212.4,195.8Z"/><path class="cls-4" d="M274.45,193.47a6.2,6.2,0,0,0-6.37,6.29,6.34,6.34,0,1,0,6.37-6.29Zm-.09,11.35a5,5,0,0,1,0-10.06,4.94,4.94,0,0,1,4.94,5.05A4.89,4.89,0,0,1,274.36,204.82Z"/><path class="cls-5" d="M277.35,197.77c-.21-1.09-1-1.57-2.6-1.59-.75,0-1.5,0-2.25,0-.39,0-.65,0-.65.53,0,2.05,0,4.09,0,6.14,0,.44.19.59.62.59s.62-.15.6-.6,0-1.16,0-1.74c0-.29-.18-.74.36-.79s.79-.06,1,.41c.35.67.82,1.26,1.14,1.94s1,.92,1.82.65l-1.9-2.94C277.21,199.62,277.59,199.06,277.35,197.77Zm-3.09,1.47a1.17,1.17,0,0,1-1.18-1.78c.11-.25.28-.26.49-.26a11,11,0,0,1,1.52,0c.58.07,1,.35,1,1s-.45.88-1,.94A7.27,7.27,0,0,1,274.26,199.24Z"/></svg>