<svg id="Calque_1" data-name="Calque 1" xmlns="http://www.w3.org/2000/svg" viewBox="0 0 300 300"><defs><style>.cls-1{fill:#333;}</style></defs><title>Plan de travail 8</title><path class="cls-1" d="M150,4.2A146.8,146.8,0,1,0,296.8,151,146.81,146.81,0,0,0,150,4.2Zm87.7,208.59-23.52,23.52C160.43,263.19,36.8,139.55,63.68,86.47L87.19,62.29s8.07-4,14.11,2c6.72,5.38,21.5,35.61,21.5,35.61s4.71,6-4,14.78c-7.51,6.94-8.06,7.41-8.07,7.41s-4,4.75-1.33,9.39c11.42,21.5,38.29,48.38,59.12,59.13a8.83,8.83,0,0,0,9.41-.67l8.06-8.74c8.07-8.06,14.78-4,14.78-4s29.57,15.46,35.62,21.5C241.73,205.4,237.7,212.79,237.7,212.79Z"/></svg>