<svg id="Calque_1" data-name="Calque 1" xmlns="http://www.w3.org/2000/svg" viewBox="0 0 300 300"><defs><style>.cls-1{fill:#484c88;}.cls-2{fill:#a9add1;}.cls-3{fill:#a5a9ce;}.cls-4{fill:#bec1dc;}.cls-5{fill:#c9cbe0;}.cls-6{fill:#b3b6d5;}.cls-7{fill:#d1d4e7;}.cls-8{fill:#e8e9f2;}.cls-9{fill:#eaebf4;}.cls-10{fill:#adb1d4;}.cls-11{fill:#7377a9;}.cls-12{fill:#7175a7;}.cls-13{fill:#777bab;}.cls-14{fill:#6c70a3;}.cls-15{fill:#60649a;}.cls-16{fill:#6e72a5;}.cls-17{fill:#63679d;}.cls-18{fill:#5b5f97;}.cls-19{fill:#7074a6;}.cls-20{fill:#6a6ea2;}.cls-21{fill:#575b94;}.cls-22{fill:#666a9f;}.cls-23{fill:#545791;}.cls-24{fill:#7b7faf;}.cls-25{fill:#50538e;}.cls-26{fill:#686ca1;}.cls-27{fill:#4c508b;}.cls-28{fill:#7f82b1;}.cls-29{fill:#8286b4;}.cls-30{fill:#868ab7;}.cls-31{fill:#8a8eba;}.cls-32{fill:#8e92bd;}.cls-33{fill:#9296c0;}.cls-34{fill:#9a9ec6;}.cls-35{fill:#969ac3;}.cls-36{fill:#a1a5cb;}.cls-37{fill:#9ea2c9;}.cls-38{fill:#7276a8;}.cls-39{fill:#777bac;}.cls-40{fill:#878bb7;}.cls-41{fill:#5f639a;}.cls-42{fill:#8387b4;}.cls-43{fill:#7f83b2;}.cls-44{fill:#585c95;}.cls-45{fill:#51558f;}.cls-46{fill:#545892;}.cls-47{fill:#4d518d;}.cls-48{fill:#4a4e8a;}.cls-49{fill:#777bb2;}.cls-50{fill:#9da1c8;}.cls-51{fill:#fefefe;}.cls-52{fill:#c1c3dc;}</style></defs><title>Plan de travail 1</title><path class="cls-1" d="M225.54,94.25A79.45,79.45,0,0,1,234,97.62c10,4.46,19.45,9.88,27.74,17.12,6.7,5.85,12.27,12.56,15.69,20.88a38.83,38.83,0,0,1,2.85,12.47,3.83,3.83,0,0,1,.07,1.07,9.75,9.75,0,0,0,.1,2.29v.63a11.4,11.4,0,0,0-.5,3.23c-1.4,9-5.63,16.63-11.58,23.38-7.56,8.59-16.83,14.91-26.91,20.13-13.61,7.05-28.08,11.66-43,14.84a223,223,0,0,1-29,4.13,104.16,104.16,0,0,1-10.45.52,3.07,3.07,0,0,1-1.13.07c-.25,0-.61.13-.69-.27s.21-.5.44-.65c.9-.6,1.89-1,2.82-1.57,1.61-.95,3.24-1.88,4.76-3,1.43-.57,3-.39,4.45-.51q8.34-.66,16.62-1.93A200.39,200.39,0,0,0,211.41,205a158.3,158.3,0,0,0,24.2-9.05,99.09,99.09,0,0,0,21.5-13.48c6.49-5.45,12-11.73,15.21-19.69a32.91,32.91,0,0,0,2.44-15.67c-.73-7.7-3.89-14.34-8.6-20.35-5.52-7.06-12.46-12.46-20-17.1a123.19,123.19,0,0,0-19.54-9.57c-.57-.22-1.23-.36-1.48-1.05a20.58,20.58,0,0,1-.29-3.92C224.85,94.74,224.74,94.1,225.54,94.25Z"/><path class="cls-2" d="M146.54,81.48h2.3a14.14,14.14,0,0,1,2,4.37.61.61,0,0,1-.26.81,8.18,8.18,0,0,1-3.27,0c-.35-.16-.45-.5-.58-.82-.46-1.08-.86-2.19-1.4-3.23-.15-.31-.32-.63-.1-1C145.66,81.46,146.13,81.73,146.54,81.48Z"/><path class="cls-3" d="M150.73,86.5a21.51,21.51,0,0,0-1.56-4.16c-.1-.29-.22-.57-.33-.86h4.4a.2.2,0,0,1,0,.27c-.51.3-.42.72-.23,1.17a24.79,24.79,0,0,1,1,2.65c.1.35.35.72,0,1.07a.93.93,0,0,1-.33.12C152.67,86.76,151.66,87.07,150.73,86.5Z"/><path class="cls-4" d="M146.54,81.48c-.37.37-.84.14-1.26.21a1.24,1.24,0,0,1-1.39.1.22.22,0,0,1-.08-.31Z"/><path class="cls-5" d="M155.55,81.48h2.51a.22.22,0,0,1-.07.31,3.31,3.31,0,0,1-2.32,0A.28.28,0,0,1,155.55,81.48Z"/><path class="cls-6" d="M155.55,81.48v.2l-.14.13a2.38,2.38,0,0,1-2.17-.13v-.2Z"/><path class="cls-7" d="M143.81,81.48v.2a1.72,1.72,0,0,1-1.8.12.22.22,0,0,1-.08-.32Z"/><path class="cls-8" d="M158.07,81.67c0-.07,0-.13,0-.19h1.68a1.09,1.09,0,0,0,0,.18c-.34.38-.78.31-1.21.28A.73.73,0,0,1,158.07,81.67Z"/><path class="cls-9" d="M141.93,81.48c0,.06,0,.13,0,.19a1.23,1.23,0,0,1-1.68,0,1.09,1.09,0,0,0,0-.18Z"/><path class="cls-10" d="M140.24,81.66h5c.55,1.31,1.1,2.62,1.66,3.92a1.87,1.87,0,0,1,.23.89,6.27,6.27,0,0,1-2.95.48,181.77,181.77,0,0,0-19.1,1.12A201.45,201.45,0,0,0,77.77,98.46a127.84,127.84,0,0,0-28.11,13.87,18.19,18.19,0,0,1-3.8,2.37.69.69,0,0,1-.67-.56,16.4,16.4,0,0,1-.52-4.07,1.08,1.08,0,0,1,.24-.56,49.24,49.24,0,0,1,6.23-4.2,143.34,143.34,0,0,1,31.35-14A199,199,0,0,1,110,84.78c5.18-.85,10.37-1.57,15.6-2.08,3.67-.36,7.34-.67,11-.85Z"/><path class="cls-11" d="M25.62,170.57a32.83,32.83,0,0,1-4-8.64c.69-.16,1,.38,1.32.8a104,104,0,0,0,10.48,11.53,15.53,15.53,0,0,0,3,2.42c2,1.95,4,3.93,6.2,5.76a94.91,94.91,0,0,0,13.3,9.21c1.05.62,2.16,1.13,3.19,1.78.3.19.76.28.73.79-.44.34-.86.12-1.28-.06A96,96,0,0,1,35.68,180c-2.71-2.26-5.29-4.65-7.78-7.14C27.14,172.07,26.67,171,25.62,170.57Z"/><path class="cls-12" d="M25.62,170.57c.41-.51.61,0,.8.21.85.87,1.63,1.81,2.49,2.67A97.68,97.68,0,0,0,58.79,194a2.35,2.35,0,0,0,1,.18c.4-.29.74,0,1.06.14,3.34,1.7,6.74,3.28,10.21,4.71a1.24,1.24,0,0,1,.72.57c-.28.71-.84.33-1.22.23-1.76-.44-3.49-1-5.2-1.59a97,97,0,0,1-22.66-11.36,94,94,0,0,1-11.64-9.21,2.13,2.13,0,0,0-.85-.6A34,34,0,0,1,25.62,170.57Z"/><path class="cls-13" d="M36.34,176.8a5.24,5.24,0,0,1-2.5-1.81,96.68,96.68,0,0,1-11-12,2.77,2.77,0,0,0-1.24-1.08A25.39,25.39,0,0,1,20,154.84c-.1-.23-.19-.49.05-.65s.39,0,.55.17a3.79,3.79,0,0,1,.77,1c1.5,2.31,3.14,4.5,4.79,6.69a6.61,6.61,0,0,0,1.47,1.47c.92,1.55,1.66,3.19,2.61,4.73a52.55,52.55,0,0,0,5.55,7.55C36,176.07,36.45,176.29,36.34,176.8Z"/><path class="cls-14" d="M68.82,203.6a98.34,98.34,0,0,1-12.77-6.1c.37-.7.88-.29,1.32-.11a116.27,116.27,0,0,0,16.23,5.44,113.18,113.18,0,0,0,13.17,2.36,2.7,2.7,0,0,0,1.13-.09c2.36.36,4.65,1.05,6.95,1.64.21,0,.49.17.33.51a4.46,4.46,0,0,1-2.54.43,118.34,118.34,0,0,1-17.57-2.48C73,204.75,70.92,204,68.82,203.6Z"/><path class="cls-15" d="M117.42,216.36c-3.51-.44-7-.93-10.47-1.67.19-.88.94-.81,1.56-.87,3.51-.35,7-.84,10.44-1.53a8.94,8.94,0,0,0,2.3-.68,36.36,36.36,0,0,1,4.54.34c1.45.08,2.89.3,4.34.38a1.09,1.09,0,0,1,.93.35c0,.28-.22.33-.42.38a117.7,117.7,0,0,1-12.56,3A1.36,1.36,0,0,0,117.42,216.36Z"/><path class="cls-16" d="M43.88,189.8a53.07,53.07,0,0,1-8-6.66c.41-.53.48-.54,1.16,0q2.16,1.65,4.38,3.21a98.29,98.29,0,0,0,23.47,12,100.16,100.16,0,0,0,10.84,3.15,4.47,4.47,0,0,0,2,.24A29.37,29.37,0,0,1,83,203.42a.38.38,0,0,1,.26.41,2.49,2.49,0,0,1-2,.19,97.63,97.63,0,0,1-26.1-8.15A95.34,95.34,0,0,1,44.46,190,1,1,0,0,0,43.88,189.8Z"/><path class="cls-17" d="M121.19,211.8c-.91.83-2.12.78-3.2,1a80.41,80.41,0,0,1-9.66,1.33,1.62,1.62,0,0,0-1.38.58,101.48,101.48,0,0,1-10.06-2.1c.07-.69.64-.68,1.09-.67,2.19,0,4.38-.06,6.55-.24,2.9-.25,5.83-.28,8.65-1.13a37.18,37.18,0,0,1,5.66.66C119.63,211.3,120.54,211.08,121.19,211.8Z"/><path class="cls-18" d="M117.42,216.36c0-.43.32-.53.71-.6A70.16,70.16,0,0,0,129.29,213a5.2,5.2,0,0,1,1.75-.19,1.89,1.89,0,0,1,1.57-.31c1.4.1,2.81.24,4.22.21a1.39,1.39,0,0,1,.88.25c.29.92-.49,1.06-1,1.25-1.76.67-3.56,1.23-5.35,1.8-1.56.5-3.17.82-4.71,1.38C123.55,217.2,120.48,216.82,117.42,216.36Z"/><path class="cls-16" d="M43.88,189.8c.51-.4.85.1,1.18.3A102.08,102.08,0,0,0,69.14,201a104.7,104.7,0,0,0,12.35,2.85,11.71,11.71,0,0,0,1.78,0c.37-.28.73-.07,1.08,0,.93.29,1.87.52,2.79.86.29.11.73.08.74.57-1,.58-2.07.07-3-.06A99.45,99.45,0,0,1,63,199.88c-2-.74-4-1.4-5.91-2.32-.34-.17-.69-.39-1.05-.06A85.51,85.51,0,0,1,43.88,189.8Z"/><path class="cls-19" d="M77.61,201.94c-.58.38-1.13,0-1.67-.11a99.3,99.3,0,0,1-25.48-9.59,90.59,90.59,0,0,1-13.71-9.06c-.29-.23-.55-.48-.86,0a44,44,0,0,1-5.67-6.06c.45-.32.69.08.93.31a97.39,97.39,0,0,0,39.12,22.13,2,2,0,0,0,1.47.12,1.15,1.15,0,0,1,.91.05c1.47.5,2.93,1.05,4.36,1.66C77.27,201.46,77.65,201.51,77.61,201.94Z"/><path class="cls-20" d="M68.82,203.6a4.9,4.9,0,0,1,2.67.41c3.85,1,7.74,1.73,11.67,2.36,3,.48,6.11.64,9.15,1a23.29,23.29,0,0,0,2.9-.21c1-.33,5,.64,5.71,1.36-.28.75-.94.61-1.51.62a104.34,104.34,0,0,1-15.79-.92c-1.23-.16-2.46-.4-3.71-.46A96.71,96.71,0,0,1,68.82,203.6Z"/><path class="cls-21" d="M126.64,217.42c.39-.59,1-.65,1.64-.8,2.81-.71,5.53-1.68,8.27-2.59a1.77,1.77,0,0,0,1.19-.78,1.1,1.1,0,0,1,.86-.3,30.31,30.31,0,0,1,6.24.31c.53.29.35.6,0,.88a5.2,5.2,0,0,1-1.31.66c-2.87,1.16-5.75,2.32-8.72,3.25C132.08,218,129.35,217.74,126.64,217.42Z"/><path class="cls-22" d="M113.23,210.74c-1.09.76-2.39.69-3.6.82a91.84,91.84,0,0,1-11.84.65c-.36,0-.7,0-.9.38-3-.64-5.91-1.37-8.8-2.29.13-.8.77-.7,1.3-.66a84,84,0,0,0,10.76.33,35.74,35.74,0,0,0,6.45-.5,33.55,33.55,0,0,1,6.15.9A.71.71,0,0,1,113.23,210.74Z"/><path class="cls-23" d="M134.81,218.05a1.6,1.6,0,0,1,1-.63c2.7-.87,5.31-2,7.94-3,.48-.18,1.12-.26,1.28-.92a1,1,0,0,1,.75-.3c2,0,4-.13,6,.06.49.16.46.45.17.78a2.92,2.92,0,0,1-1,.63c-2.39,1.2-4.83,2.27-7.35,3.32.23.2.71,0,.72.5C141.22,218.46,138,218.31,134.81,218.05Z"/><path class="cls-24" d="M27.54,163.6c-1.37-.54-1.88-1.89-2.7-2.92a70.59,70.59,0,0,1-4.08-5.77c-.15-.25-.31-.57-.68-.54,0,0-.07.31-.1.47a20.06,20.06,0,0,1-.37-5.07,6.41,6.41,0,0,0,.07-1.45c0-.16,0-.36.17-.44s.33.06.47.17a2.73,2.73,0,0,1,.53.76c1,1.76,2.06,3.53,3.2,5.22a5,5,0,0,0,1.18,1.3,5.58,5.58,0,0,1,.59,2,33.83,33.83,0,0,0,1.61,5.28A1.18,1.18,0,0,1,27.54,163.6Z"/><path class="cls-25" d="M144.44,218.46c-.38-.36-.89,0-1.41-.32a13.58,13.58,0,0,1,3.15-1.51c1.74-.85,3.5-1.65,5.26-2.47a1.57,1.57,0,0,0,.76-.68.66.66,0,0,1,.53-.28c2.31.07,4.61-.39,6.91-.17.44.19.46.4,0,.61-3.24,1.51-6.33,3.32-9.56,4.85Z"/><path class="cls-26" d="M106.73,209.69a10.51,10.51,0,0,1-1.81.41,88.07,88.07,0,0,1-10.65.17,29.58,29.58,0,0,1-4.88-.33c-.43-.11-1-.2-1.3.36a70.89,70.89,0,0,1-8.18-2.52c0-.12-.14-.34,0-.32,1.71.17,3.42.38,5.13.59s3.35.48,5,.58c3.26.18,6.52.32,9.78.23.39,0,.78,0,1-.42.07-.07.15-.16.26-.15a27.91,27.91,0,0,1,5.43,1.07A.27.27,0,0,1,106.73,209.69Z"/><path class="cls-27" d="M150.1,218.49c0-.5.49-.54.81-.71a73.46,73.46,0,0,0,7.77-4.18c.4-.27.92.06,1.27-.33,1.73-.43,3.46-.88,5.23-.22-1.23,1.32-2.91,1.95-4.38,2.93a39.84,39.84,0,0,0-3.56,2.07c.58.43,1.19.12,1.73.26A79.53,79.53,0,0,1,150.1,218.49Z"/><path class="cls-28" d="M25,155.43c-1.19-.72-1.65-2-2.36-3.09-.93-1.4-1.74-2.88-2.67-4.44-.42.67,0,1.36-.38,1.87a28.38,28.38,0,0,1,.63-6.5c.4-1,.77-.24,1,.08.63,1.08,1.19,2.19,1.79,3.28.37.66.76,1.32,1.19,2.05.27-.31.12-.68.27-1s.37-.4.56,0a1.85,1.85,0,0,1,.1.93,32.3,32.3,0,0,0,.12,5.9A1.1,1.1,0,0,1,25,155.43Z"/><path class="cls-29" d="M24.81,147.47c-.32.27-.16.64-.21,1s.18.72-.24.8-.39-.33-.51-.56c-.91-1.67-1.8-3.35-2.73-5-.17-.28-.23-1.07-.88-.4a23.62,23.62,0,0,1,1.24-4.81c.64-.27.8.25,1,.64.44,1.06,1,2.06,1.49,3.1a5.57,5.57,0,0,0,1.46,2.1A7,7,0,0,1,24.81,147.47Z"/><path class="cls-30" d="M25.23,144.12c-.59.28-.73-.22-.9-.57-.7-1.44-1.52-2.82-2.09-4.33-.13-.36-.27-.74-.76-.76a21.57,21.57,0,0,1,1.49-4c.64-.26.78.28,1,.65.45.82.77,1.71,1.14,2.58A9.41,9.41,0,0,0,26.37,140,12.64,12.64,0,0,1,25.23,144.12Z"/><path class="cls-31" d="M26.28,139.93c-.49,0-.63-.38-.78-.73-.6-1.31-1.17-2.64-1.78-4-.15-.33-.26-.74-.75-.75a23.86,23.86,0,0,1,2.05-4c.6,0,.61.56.78.93a23.33,23.33,0,0,0,2,4.51A10.45,10.45,0,0,1,26.28,139.93Z"/><path class="cls-32" d="M27.74,136c-.42,0-.5-.33-.67-.65C26.25,133.75,26,132,25,130.5a16.82,16.82,0,0,1,2.08-3.36c.66,0,.69.59.84,1,.32.91.68,1.81.95,2.74a2.56,2.56,0,0,0,.75,1.21A7.32,7.32,0,0,1,27.74,136Z"/><path class="cls-33" d="M29.63,132.18c-.62.06-.7-.41-.87-.83-.56-1.4-.77-2.94-1.66-4.21a15.25,15.25,0,0,1,2.11-2.93c.75-.25.77.42.92.8a35.46,35.46,0,0,0,1.45,4.13A5.65,5.65,0,0,1,29.63,132.18Z"/><path class="cls-2" d="M44.91,109.51a36.44,36.44,0,0,0,.45,4.3c0,.35.15.7.58.77A5.76,5.76,0,0,1,42.86,117c-.57-.19-.61-.71-.72-1.18-.27-1.26-.42-2.54-.61-3.81A18.51,18.51,0,0,1,44.91,109.51Z"/><path class="cls-3" d="M41.53,112c.87.68.29,1.74.67,2.57s0,1.73.83,2.27a5.44,5.44,0,0,1-2.86,2.46c-.49-.1-.65-.5-.74-.9a31.41,31.41,0,0,1-.78-4.07A16.15,16.15,0,0,1,41.53,112Z"/><path class="cls-34" d="M31.47,121.47A16.3,16.3,0,0,1,34,118.74c.63,0,.65.54.76.94.35,1.35.7,2.69,1.06,4a4.65,4.65,0,0,1-2.29,2.76c-.7-.13-.77-.73-.92-1.24C32.22,124,31.9,122.71,31.47,121.47Z"/><path class="cls-35" d="M31.47,121.47c.34,0,.41.26.49.55.3,1.13.64,2.25,1,3.37.11.38.13.85.68.92a5.88,5.88,0,0,1-2.11,2.93c-.87-.81-.86-2-1.27-3-.28-.7-.13-1.64-1-2A15.54,15.54,0,0,1,31.47,121.47Z"/><path class="cls-36" d="M38.65,114.37c.67.93.49,2.09.85,3.1.2.6,0,1.43.82,1.72a3.8,3.8,0,0,1-2.46,2.37c-.58-.22-.65-.77-.8-1.26a24.85,24.85,0,0,0-1-3.63A17.38,17.38,0,0,1,38.65,114.37Z"/><path class="cls-37" d="M36.1,116.67c.53.08.58.49.66.9.2,1,.41,2,.64,3a1.28,1.28,0,0,0,.59.92,3.54,3.54,0,0,1-2.29,2.31,19.79,19.79,0,0,1-1.22-4.06c-.11-.37-.14-.75-.49-1A16.5,16.5,0,0,1,36.1,116.67Z"/><path class="cls-26" d="M197.87,86.32a33.62,33.62,0,0,1,4.45,1l.54,3.89a1.57,1.57,0,0,1-.11,1.2.7.7,0,0,1-.68.18,12.63,12.63,0,0,1-3.66-1,28.28,28.28,0,0,1-.79-4.47A.87.87,0,0,1,197.87,86.32Z"/><path class="cls-16" d="M197.87,86.32c0,1.76.63,3.45.63,5.21a6.82,6.82,0,0,1-3.94-.77,16.1,16.1,0,0,1-.91-4.44c-.06-.41.08-.88.72-.68A16.79,16.79,0,0,1,197.87,86.32Z"/><path class="cls-17" d="M202.68,92.37c-.18-1.34-.35-2.69-.55-4,0-.37-.19-.74.19-1a26.53,26.53,0,0,1,3.52.85,11.79,11.79,0,0,1,.72,5.19A5.63,5.63,0,0,1,202.68,92.37Z"/><path class="cls-38" d="M194.37,85.64c-.48,0-.54.4-.47.75.26,1.44.55,2.87.83,4.3-1.37.43-2.59-.15-3.83-.56a14.7,14.7,0,0,1-1-4.62.77.77,0,0,1,.26-.66A32.43,32.43,0,0,1,194.37,85.64Z"/><path class="cls-39" d="M190.12,84.85c0,1.79.62,3.47.83,5.22a5.75,5.75,0,0,1-3.64-.61,39,39,0,0,1-.93-4.26c-.13-.6.05-1.07.84-.81A13.49,13.49,0,0,1,190.12,84.85Z"/><path class="cls-35" d="M162.5,81.88a16.4,16.4,0,0,1,3.77.21c-1,.56-1,.56-.65,1.79.17.52.32,1.06.46,1.6.38,1.36.18,1.62-1.27,1.76q-1.44,0-2.88,0a1.47,1.47,0,0,1-1.15-.33c.07-.56.54-.45.87-.46.72,0,.8-.38.61-1-.26-.79-.52-1.59-.79-2.38C161,81.86,161.17,81.71,162.5,81.88Z"/><path class="cls-24" d="M187.22,84.39c-.65,0-.71.31-.57.88a17.8,17.8,0,0,1,.74,4.17,6,6,0,0,1-3.8-.48,2.94,2.94,0,0,0,.13-1.88c-.18-1.09-.83-2.12-.52-3.29A33.88,33.88,0,0,1,187.22,84.39Z"/><path class="cls-33" d="M165,86.93c1.16-.05,1.21-.12.89-1.2-.26-.85-.45-1.74-.79-2.56s-.13-1.19.79-1.07a2.84,2.84,0,0,0,.41,0,10.67,10.67,0,0,1,2.93.21,1.05,1.05,0,0,0-.49,1.47,15.65,15.65,0,0,1,.49,1.69c.43,1.62.24,1.88-1.42,2-.65,0-1.3,0-1.94,0C165.49,87.39,165.05,87.46,165,86.93Z"/><path class="cls-40" d="M174,82.72a17,17,0,0,1,3.83.41,1.59,1.59,0,0,0-.13,1.3c.19.66.35,1.34.51,2,.34,1.45.15,1.71-1.35,1.83-.65,0-1.35.13-1.88-.42a31.53,31.53,0,0,1-1.15-4.26A.87.87,0,0,1,174,82.72Z"/><path class="cls-41" d="M206.46,93.41c-.21-1.75-.41-3.5-.62-5.26A20.23,20.23,0,0,1,209,89a6.88,6.88,0,0,1,.55,2.49c.15.92.24,1.84.33,2.76A4.55,4.55,0,0,1,206.46,93.41Z"/><path class="cls-42" d="M176.92,88c1.32,0,1.33,0,1-1.27-.22-.94-.41-1.89-.71-2.81-.19-.61,0-.75.56-.76a9.28,9.28,0,0,1,2.46.26,14.16,14.16,0,0,1,1.17,4.29c.12.59-.28.88-.83,1a18.13,18.13,0,0,1-3.12-.23C177.23,88.42,176.91,88.36,176.92,88Z"/><path class="cls-43" d="M180.69,88.39c.61-.06.57-.38.45-.87-.32-1.37-.58-2.75-.87-4.13.95.36,2,0,2.93.4.34,1.38.68,2.74,1,4.12.11.47.14.94-.58.9A2.69,2.69,0,0,1,180.69,88.39Z"/><path class="cls-32" d="M167.91,87.13c1.38,0,1.39,0,1.05-1.39a16.32,16.32,0,0,0-.65-2.27c-.4-1,0-1.25.89-1.17a7.65,7.65,0,0,1,2.52.21,1.51,1.51,0,0,0-.13,1.28c.23.72.45,1.45.62,2.19.3,1.29.07,1.58-1.29,1.65l-.41,0a16.84,16.84,0,0,1-1.74,0C168.43,87.6,168,87.67,167.91,87.13Z"/><path class="cls-31" d="M170.63,87.34c.24,0,.48,0,.72,0,.71.05.85-.33.69-.9-.28-1-.56-2.06-.89-3.08-.18-.57-.07-.87.57-.86a6.37,6.37,0,0,1,2.26.21,39.05,39.05,0,0,0,.92,4.13c0,.3.09.61.13.91a1.09,1.09,0,0,1-.95.29c-.93-.09-1.85-.17-2.78-.23C171,87.81,170.65,87.78,170.63,87.34Z"/><path class="cls-34" d="M162.5,81.88c-1-.08-1.25.17-.77,1.16a26.62,26.62,0,0,1,1,2.86c.22.64,0,.89-.65.82-.41,0-.83,0-1.25,0a.69.69,0,0,1-.83.09,23.52,23.52,0,0,1-1.62-4.53.56.56,0,0,1,.15-.57l1.26,0A11.61,11.61,0,0,1,162.5,81.88Z"/><path class="cls-44" d="M212.14,89.84a11.38,11.38,0,0,1,2.76.81c0,1.34.23,2.66.34,4a1.15,1.15,0,0,1-.31,1.13,3.63,3.63,0,0,1-3-1c-.22-1.34-.34-2.69-.48-4C211.42,90.33,211.32,89.69,212.14,89.84Z"/><path class="cls-45" d="M217.62,91.5a11.92,11.92,0,0,1,2.67.87,11.44,11.44,0,0,1,.36,5.1,3.19,3.19,0,0,1-3.09-1c-.23-1.32-.31-2.66-.44-4C217.08,92.12,216.9,91.55,217.62,91.5Z"/><path class="cls-46" d="M217.62,91.5c-.64,1,.07,2.07,0,3.11,0,.62.12,1.3.13,2a3.27,3.27,0,0,1-2.93-.86c.35-1-.07-2.07-.11-3.11,0-.66-.34-1.34.17-1.95A11.17,11.17,0,0,1,217.62,91.5Z"/><path class="cls-18" d="M212.14,89.84c-.68.16-.46.69-.39,1.08a19.46,19.46,0,0,1,.36,4,2.28,2.28,0,0,1-2.3-.63c-.68-.87-.37-2-.58-2.92A6.09,6.09,0,0,1,209,89,14.88,14.88,0,0,1,212.14,89.84Z"/><path class="cls-47" d="M220.5,97.59l-.21-5.22a16.51,16.51,0,0,1,3,1,27,27,0,0,0,.17,3.59,2.17,2.17,0,0,1-.1,1.4C222.17,98.87,221.34,98.21,220.5,97.59Z"/><path class="cls-48" d="M223.22,98.46c-.12-1.43-.22-2.86-.36-4.28,0-.38-.11-.7.39-.77a8.64,8.64,0,0,1,2.29.84c-.58.09-.44.55-.43.9,0,1.37.13,2.75.2,4.13A1.81,1.81,0,0,1,223.22,98.46Z"/><path class="cls-49" d="M223.22,98.46a7.11,7.11,0,0,0,2.09.82c2.94,1.29,5.93,2.43,8.85,3.77a116.85,116.85,0,0,1,12.37,6.55,78.67,78.67,0,0,1,16.13,12.71c4.87,5.12,8.84,10.84,11,17.68a32.42,32.42,0,0,1,1.51,12.16,38.1,38.1,0,0,1-7.83,20,68,68,0,0,1-16,15.06,102.84,102.84,0,0,1-13.77,8.1A159,159,0,0,1,209.12,206c-6.91,1.88-13.91,3.33-21,4.53-3.28.56-6.6.86-9.9,1.33-4.34.61-8.71.81-13.07,1.24-1.75-.13-3.48.3-5.23.22l-7.75.21h-7.13c-2.44-.18-4.88-.26-7.33-.22-.15-.06-.31-.19-.46-.18-2.09.11-4.16-.31-6.24-.23a8.42,8.42,0,0,0-2.95-.36c-2.29-.24-4.6-.43-6.9-.68l-8-1.06c-2.17-.36-4.3-.87-6.5-1.05-1.91-.6-3.91-.84-5.86-1.25l-5.66-1.26c-2.4-.82-4.9-1.22-7.33-1.89l-4.61-1.46a37.59,37.59,0,0,0-5.66-1.89,59,59,0,0,0-5.87-2.3c-4-1.65-8-3.62-11.94-5.45-2.57-1.65-5.32-3-7.88-4.65a90.57,90.57,0,0,1-9.48-6.93,56.77,56.77,0,0,1-6.1-5.81,48.68,48.68,0,0,1-5.75-7.51,32.08,32.08,0,0,1-3.05-5.69,34.67,34.67,0,0,1-2.34-7.92c0-.09-.12-.17-.18-.25a40.72,40.72,0,0,1-.21-8,25.14,25.14,0,0,1,.42-3.35,24,24,0,0,1,1.05-4.19,32.64,32.64,0,0,1,1.46-4l1.89-3.77,1.88-2.94,2.11-2.93a16.13,16.13,0,0,0,2.08-2.51A14.29,14.29,0,0,0,38,121.49a17.46,17.46,0,0,0,2.33-2.3L43,116.88l2.91-2.3c2.71-2,5.48-3.81,8.35-5.52a140.66,140.66,0,0,1,31-13.4,196.62,196.62,0,0,1,25-5.84c4.83-.82,9.68-1.45,14.54-2,3-.34,6-.45,8.93-.69,3.61-.29,7.23-.42,10.85-.45.83,0,1.66-.16,2.5-.17h6.69c1.57-.13,3.14-.1,4.71-.12a1.88,1.88,0,0,1,1.38.32h.83c1.38.45,2.8.08,4.19.21.95.42,2,.1,2.94.2.87.45,1.81.1,2.72.21a28.25,28.25,0,0,0,4.4.42,4.05,4.05,0,0,0,1.89.21,15.41,15.41,0,0,0,3.77.42,8.33,8.33,0,0,0,2.93.42c1.23.39,2.53.34,3.77.63l3.56.63,3.78.62,3.77.84,4.18.84,3.78,1,3.35.84,2.3.63,2.73.83,2.93.86a21.82,21.82,0,0,0,2.73,1A21,21,0,0,0,223.22,98.46Z"/><path class="cls-50" d="M160,86.71h-5.1c-.34,0-.71.11-1-.19h.22c.43-.39,1-.26,1.48-.28,1.12,0,1.2-.15.8-1.22l-.84-2.23c-.13-.35-.27-.72,0-1.07v0h2.52l.41,0a31.67,31.67,0,0,0,1.18,3.81C159.77,85.91,159.85,86.31,160,86.71Z"/><path class="cls-36" d="M155.55,81.7a20.34,20.34,0,0,0,1.28,3.71c.3.83.15,1.17-.77,1.1-.66-.05-1.32,0-2,0-.5-1.32-1-2.64-1.5-3.94-.3-.75,0-.94.66-.88Z"/><path class="cls-51" d="M185.9,130.48c.72-3.76,1.43-7.53,2.18-11.29a2.78,2.78,0,0,1,2.85-2.3c10.3,0,20.6-.1,30.9.07a26.58,26.58,0,0,1,15.5,4.66,18.79,18.79,0,0,1,8.08,13.95c1,10.69-2,20.07-9.61,27.82a30.25,30.25,0,0,1-18.31,9c-6,.77-12,.54-18,.55-.92,0-1.25.28-1.41,1.15-.89,4.8-1.84,9.58-2.76,14.37a3,3,0,0,1-3.34,2.75H178c-2.4,0-3.59-1.42-3.14-3.79.92-4.9,1.89-9.78,2.81-14.55-5.46.19-10.92.07-16.37.08a2.85,2.85,0,0,1-2.95-3.64c1.19-6.19,2.44-12.37,3.61-18.57.85-4.48,1.88-8.93,2.51-13.46a4.34,4.34,0,0,0,.07-.52c.14-1.91-.38-2.6-2.26-2.91a16.24,16.24,0,0,0-2.7-.25c-3.15,0-6.29,0-9.43,0-.69,0-1,.18-1.08.89Q146.3,148.79,143.5,163q-.69,3.54-1.37,7.08c-.38,2-1.37,2.87-3.46,2.87H124.84c-2.43,0-3.61-1.53-3.13-3.93.73-3.66,1.44-7.32,2.16-11a7.4,7.4,0,0,0,0-.87,49.5,49.5,0,0,1-3.59,4.73,30.66,30.66,0,0,1-19.67,10.48c-5.91.76-11.85.56-17.78.54-1.11,0-1.46.31-1.65,1.37-.87,4.76-1.83,9.51-2.76,14.26a2.91,2.91,0,0,1-3.2,2.64H61.12c-2.38,0-3.61-1.47-3.16-3.82.83-4.35,1.69-8.69,2.54-13q3.42-17.55,6.83-35.09c1.28-6.56,2.54-13.13,3.82-19.7a3,3,0,0,1,3.36-2.72q14.24,0,28.49,0c5.32,0,10.51.76,15.27,3.35a19.24,19.24,0,0,1,9.85,12.65,2,2,0,0,0,.43.9c.33-1.66.68-3.32,1-5q2.65-13.7,5.31-27.39c.39-2,1.34-2.77,3.41-2.77q7,0,13.93,0c2.35,0,3.54,1.42,3.1,3.74-.85,4.45-1.71,8.9-2.63,13.33-.19,1,0,1.22,1,1.2,3.38-.06,6.77-.08,10.16,0,4.65.1,9.26.54,13.58,2.49a13.07,13.07,0,0,1,8.12,11.08c.19.19.14.43.13.67A1.46,1.46,0,0,1,185.9,130.48Z"/><path class="cls-52" d="M185.9,130.48a3.81,3.81,0,0,1-.07.59,2.3,2.3,0,0,1-.3.46v-1.05Z"/><path d="M60.68,188.3q2-10.47,4.07-20.85l7.41-38.17q.86-4.41,1.7-8.82c.09-.51.24-.78.85-.78,10.44.09,20.88-.2,31.31.17a23.42,23.42,0,0,1,12.27,3.67,16.42,16.42,0,0,1,7.63,13.72c.43,12.62-4.51,22.55-15.5,29.15-3.88,2.32-8.24,3.15-12.68,3.5-5.82.46-11.66.17-17.48.22-.79,0-1.12.14-1.28,1-1,5.52-2.14,11-3.2,16.52-.1.54-.24.76-.83.76-4.57,0-9.14,0-13.72,0A4.35,4.35,0,0,1,60.68,188.3Z"/><path d="M208.28,119.7c4.2.06,9.3-.17,14.39.13,4.88.29,9.53,1.38,13.49,4.44,5.12,3.94,6.89,9.4,6.67,15.6a31.12,31.12,0,0,1-7.06,19.37,28.33,28.33,0,0,1-19.54,10.49c-6.31.64-12.63.3-18.94.36-1.06,0-1.36.33-1.55,1.33-1,5.42-2.08,10.81-3.1,16.22-.11.55-.29.75-.87.75q-6.77,0-13.51,0c-.62,0-.75-.13-.62-.77q5.28-27,10.54-54.05c.84-4.34,1.72-8.68,2.51-13,.13-.77.45-.85,1.09-.85C197,119.71,202.19,119.7,208.28,119.7Z"/><path d="M161.05,170.12c1.15-5.93,2.29-11.74,3.41-17.55.92-4.72,1.81-9.45,2.7-14.17a10.7,10.7,0,0,0,.07-3.34,4.07,4.07,0,0,0-3-3.56,17.82,17.82,0,0,0-5.47-.72c-3.7,0-7.4,0-11.1,0-.59,0-.85.14-1,.77-2.42,12.59-4.88,25.17-7.3,37.76-.14.73-.44.86-1.1.86-4.33,0-8.66,0-13,0-.87,0-.94-.25-.8-1q2.67-13.59,5.31-27.19,3.73-19.18,7.46-38.37c.42-2.16.39-2.17,2.6-2.17,3.84,0,7.68,0,11.52,0,1.05,0,1.15.27,1,1.2-1.09,5.39-2.1,10.8-3.19,16.2-.16.81,0,.9.77.9,5.13,0,10.26-.12,15.39.09a29.66,29.66,0,0,1,10.81,2.14c4.18,1.83,6.28,5.09,6.64,9.59.27,3.47-.5,6.81-1.15,10.16q-2.67,13.8-5.37,27.6c-.09.45-.09.85-.77.85C170.75,170.11,166,170.12,161.05,170.12Z"/><path class="cls-51" d="M88.55,159.3c-2.57,0-4.49,0-6.41,0-.65,0-.85-.13-.72-.82q2.67-13.53,5.29-27.08c.1-.53.17-.92.93-.9,4.29.11,8.59-.15,12.87.2a18.66,18.66,0,0,1,4.9,1,7,7,0,0,1,4.88,6.62,25.88,25.88,0,0,1-2.41,12.4c-2.18,4.82-6.16,7.18-11.21,8A50,50,0,0,1,88.55,159.3Z"/><path class="cls-51" d="M205.31,159.3c-2.48,0-4.36-.05-6.25,0-.79,0-.91-.23-.77-.94q1.53-7.74,3-15.49c.73-3.8,1.5-7.59,2.19-11.39.14-.78.42-1,1.2-1,4.22.1,8.45-.15,12.66.2a17.48,17.48,0,0,1,5.48,1.25,6.81,6.81,0,0,1,4.28,6.41,24.27,24.27,0,0,1-3.62,14.47c-2.32,3.65-5.94,5.22-10,5.95A48.24,48.24,0,0,1,205.31,159.3Z"/><path class="cls-49" d="M94.92,133.41a32.07,32.07,0,0,1,8.52.65c2.77.75,3.9,1.74,4,4.6a20.33,20.33,0,0,1-3.76,13.42c-1.95,2.61-4.87,3.46-7.92,4-3.42.58-6.88.37-10.33.42-.65,0-.71-.18-.59-.79Q87,145,89,134.37c.15-.78.46-1,1.23-1C91.78,133.45,93.36,133.4,94.92,133.41Z"/><path class="cls-49" d="M211.83,133.4a38.5,38.5,0,0,1,7.5.43c3.79.78,5,2,5,5.85a22.8,22.8,0,0,1-2.52,10.47c-1.67,3.28-4.48,4.94-8,5.69-3.86.82-7.77.6-11.67.64-.71,0-.59-.41-.51-.83q1.38-7,2.75-14c.46-2.36,1-4.71,1.35-7.08.15-.93.52-1.19,1.42-1.15C208.75,133.46,210.29,133.4,211.83,133.4Z"/></svg>