<svg id="Calque_1" data-name="Calque 1" xmlns="http://www.w3.org/2000/svg" viewBox="0 0 300 300"><defs><style>.cls-1{fill:#fff;}</style></defs><title>Plan de travail 5</title><path class="cls-1" d="M25.51,145.46c.08-1.26.17-2.52.24-3.78a121.89,121.89,0,0,1,2.48-18.63A124.16,124.16,0,0,1,56.74,66.43a124.09,124.09,0,0,1,86.33-42,126.58,126.58,0,0,1,17.2.19,124.92,124.92,0,0,1,106,78.58,122.05,122.05,0,0,1,7.11,26,124.77,124.77,0,0,1-95.24,141.33,115.77,115.77,0,0,1-17.47,2.69c-2.4.18-4.81.27-7.22.41-.24,0-.49.06-.73.09h-5c-.25,0-.49-.08-.74-.09-2.88-.18-5.77-.3-8.65-.54A117.75,117.75,0,0,1,119.94,270a123.08,123.08,0,0,1-31.81-12.85,125.11,125.11,0,0,1-49.27-52A122.84,122.84,0,0,1,28,173.58a121.18,121.18,0,0,1-2.22-17.28c-.07-1.29-.16-2.57-.24-3.85Zm242.13,3.48A117.38,117.38,0,1,0,149.71,266.31,117.39,117.39,0,0,0,267.64,148.94Z"/><path class="cls-1" d="M123.57,215.14c-.65-1.9-1.24-3.62-1.82-5.34q-14.34-42.21-28.66-84.41-4.16-12.27-8.32-24.53c-.06-.17-.13-.35-.18-.53-.36-1.31.14-2,1.5-2,3.93,0,7.86,0,11.79,0,1.43,0,1.7-.28,1.71-1.73,0-1.81,0-3.62,0-5.43,0-1.16-.34-1.5-1.49-1.44-12.34.6-24.69.81-37,.9h-.76a107.58,107.58,0,0,1,28.92-29.8,105,105,0,0,1,37.88-16.56,106.9,106.9,0,0,1,95.53,25.66c-1.05.07-2.08.1-3.1.22-7.51.91-13.75,5.67-15.36,14a28.83,28.83,0,0,0,2.09,17,89,89,0,0,0,6.17,11.25,80.66,80.66,0,0,1,7.06,13.78,50.42,50.42,0,0,1,3,18.77,73.6,73.6,0,0,1-2.85,18.73c-1.65,5.81-3.54,11.55-5.4,17.29-3.48,10.71-7,21.41-10.54,32.12-.07.21-.15.42-.27.76-.11-.28-.2-.46-.26-.64l-23.07-68-14.91-43.92c-.69-2-.16-2.86,2-2.94,2-.07,4,0,6,0,1.58,0,3.16,0,4.74,0A1.08,1.08,0,0,0,179.23,97q0-3,0-6.05c0-1-.39-1.33-1.39-1.3-7.54.2-15.08.55-22.63.58-9.69,0-19.37-.16-29.06-.29-3,0-5.9-.19-8.85-.29-1,0-1.4.3-1.4,1.35,0,1.95,0,3.91,0,5.86,0,1,.36,1.39,1.39,1.39h9.79l1.31,0a3,3,0,0,1,3.05,2.18c1.19,3.33,2.42,6.63,3.63,9.94q6,16.35,12,32.68a1.68,1.68,0,0,1,0,1.19q-11.64,35.1-23.26,70.2C123.75,214.64,123.69,214.79,123.57,215.14Z"/><path class="cls-1" d="M119.1,251.58c11-31.51,22-63,33-94.59,11.37,31.09,22.68,62,34,93a107.24,107.24,0,0,1-44.73,5.81A105.62,105.62,0,0,1,119.1,251.58Z"/><path class="cls-1" d="M52.68,104.7q25.77,70.49,51.56,141l-.19.14c-24.68-12.31-42.8-30.94-53.14-56.62-11.41-28.31-10.42-56.57,1.53-84.51Z"/><path class="cls-1" d="M244.7,98.17c27.94,51.37,8.64,117.24-42.85,144.73l2-5.73q15.72-44.52,31.44-89a182.32,182.32,0,0,0,6.88-24.94,116.16,116.16,0,0,0,2.52-23.44Z"/></svg>